REM DIRINDEX 1\2,1\3\4,1\3\5,1\3\6,1\7,1\8,1\9,1\10,1\11,1\12\13,1\12\14,1\12\15,1\12\16,1\17
REM DIRNAME cjc025,folder01,folder02,folder03,folder04,folder05,folder06,folder07,folder08,folder09,folder10,folder11,folder12,folder13,folder14,folder15,folder16
TITLE ""
FILE "DB3000_5th_CL_06.mp3" MP3
  TRACK 01 AUDIO
    TITLE "10:cjc025_4949"
    INDEX 01 00:00:00
  TRACK 02 AUDIO
    TITLE "10:cjc025_4950"
    INDEX 01 00:01:26
  TRACK 03 AUDIO
    TITLE "10:cjc025_4951"
    INDEX 01 00:04:33
  TRACK 04 AUDIO
    TITLE "10:cjc025_4952"
    INDEX 01 00:05:50
  TRACK 05 AUDIO
    TITLE "10:cjc025_4953"
    INDEX 01 00:08:19
  TRACK 06 AUDIO
    TITLE "10:cjc025_4954"
    INDEX 01 00:09:45
  TRACK 07 AUDIO
    TITLE "10:cjc025_4955"
    INDEX 01 00:11:39
  TRACK 08 AUDIO
    TITLE "10:cjc025_4956"
    INDEX 01 00:13:00
  TRACK 09 AUDIO
    TITLE "10:cjc025_4957"
    INDEX 01 00:15:01
  TRACK 10 AUDIO
    TITLE "10:cjc025_4958"
    INDEX 01 00:16:20
  TRACK 11 AUDIO
    TITLE "10:cjc025_4959"
    INDEX 01 00:18:15
  TRACK 12 AUDIO
    TITLE "10:cjc025_4960"
    INDEX 01 00:19:38
  TRACK 13 AUDIO
    TITLE "10:cjc025_4961"
    INDEX 01 00:21:41
  TRACK 14 AUDIO
    TITLE "10:cjc025_4962"
    INDEX 01 00:22:64
  TRACK 15 AUDIO
    TITLE "10:cjc025_4963"
    INDEX 01 00:25:17
  TRACK 16 AUDIO
    TITLE "10:cjc025_4964"
    INDEX 01 00:26:34
  TRACK 17 AUDIO
    TITLE "10:cjc025_4965"
    INDEX 01 00:28:25
  TRACK 18 AUDIO
    TITLE "10:cjc025_4966"
    INDEX 01 00:29:17
  TRACK 19 AUDIO
    TITLE "10:cjc025_4967"
    INDEX 01 00:32:01
  TRACK 20 AUDIO
    TITLE "10:cjc025_4968"
    INDEX 01 00:33:03
  TRACK 21 AUDIO
    TITLE "10:cjc025_4969"
    INDEX 01 00:35:57
  TRACK 22 AUDIO
    TITLE "10:cjc025_4970"
    INDEX 01 00:36:70
  TRACK 23 AUDIO
    TITLE "10:cjc025_4971"
    INDEX 01 00:38:65
  TRACK 24 AUDIO
    TITLE "10:cjc025_4972"
    INDEX 01 00:39:60
  TRACK 25 AUDIO
    TITLE "10:cjc025_4973"
    INDEX 01 00:41:65
  TRACK 26 AUDIO
    TITLE "10:cjc025_4974"
    INDEX 01 00:43:07
  TRACK 27 AUDIO
    TITLE "10:cjc025_4975"
    INDEX 01 00:44:65
  TRACK 28 AUDIO
    TITLE "10:cjc025_4976"
    INDEX 01 00:46:00
  TRACK 29 AUDIO
    TITLE "10:cjc025_4977"
    INDEX 01 00:48:24
  TRACK 30 AUDIO
    TITLE "10:cjc025_4978"
    INDEX 01 00:49:37
  TRACK 31 AUDIO
    TITLE "10:cjc025_4979"
    INDEX 01 00:52:24
  TRACK 32 AUDIO
    TITLE "10:cjc025_4980"
    INDEX 01 00:53:62
  TRACK 33 AUDIO
    TITLE "10:cjc025_4981"
    INDEX 01 00:56:71
  TRACK 34 AUDIO
    TITLE "10:cjc025_4982"
    INDEX 01 00:58:07
  TRACK 35 AUDIO
    TITLE "10:cjc025_4983"
    INDEX 01 01:00:29
  TRACK 36 AUDIO
    TITLE "10:cjc025_4984"
    INDEX 01 01:01:64
  TRACK 37 AUDIO
    TITLE "10:cjc025_4985"
    INDEX 01 01:05:34
  TRACK 38 AUDIO
    TITLE "10:cjc025_4986"
    INDEX 01 01:07:06
  TRACK 39 AUDIO
    TITLE "10:cjc025_4987"
    INDEX 01 01:11:13
  TRACK 40 AUDIO
    TITLE "10:cjc025_4988"
    INDEX 01 01:12:19
  TRACK 41 AUDIO
    TITLE "10:cjc025_4989"
    INDEX 01 01:14:02
  TRACK 42 AUDIO
    TITLE "10:cjc025_4990"
    INDEX 01 01:15:50
  TRACK 43 AUDIO
    TITLE "10:cjc025_4991"
    INDEX 01 01:18:25
  TRACK 44 AUDIO
    TITLE "10:cjc025_4992"
    INDEX 01 01:19:34
  TRACK 45 AUDIO
    TITLE "10:cjc025_4993"
    INDEX 01 01:21:27
  TRACK 46 AUDIO
    TITLE "10:cjc025_4994"
    INDEX 01 01:22:74
  TRACK 47 AUDIO
    TITLE "10:cjc025_4995"
    INDEX 01 01:26:15
  TRACK 48 AUDIO
    TITLE "10:cjc025_4996"
    INDEX 01 01:28:02
  TRACK 49 AUDIO
    TITLE "10:cjc025_4997"
    INDEX 01 01:31:22
  TRACK 50 AUDIO
    TITLE "10:cjc025_4998"
    INDEX 01 01:32:35
  TRACK 51 AUDIO
    TITLE "10:cjc025_4999"
    INDEX 01 01:35:04
  TRACK 52 AUDIO
    TITLE "10:cjc025_5000"
    INDEX 01 01:36:23
  TRACK 53 AUDIO
    TITLE "10:cjc025_5001"
    INDEX 01 01:38:67
  TRACK 54 AUDIO
    TITLE "10:cjc025_5002"
    INDEX 01 01:40:13
  TRACK 55 AUDIO
    TITLE "10:cjc025_5003"
    INDEX 01 01:42:12
  TRACK 56 AUDIO
    TITLE "10:cjc025_5004"
    INDEX 01 01:43:29
  TRACK 57 AUDIO
    TITLE "10:cjc025_5005"
    INDEX 01 01:46:19
  TRACK 58 AUDIO
    TITLE "10:cjc025_5006"
    INDEX 01 01:47:52
  TRACK 59 AUDIO
    TITLE "10:cjc025_5007"
    INDEX 01 01:51:17
  TRACK 60 AUDIO
    TITLE "10:cjc025_5008"
    INDEX 01 01:52:38
  TRACK 61 AUDIO
    TITLE "10:cjc025_5009"
    INDEX 01 01:54:54
  TRACK 62 AUDIO
    TITLE "10:cjc025_5010"
    INDEX 01 01:55:71
  TRACK 63 AUDIO
    TITLE "10:cjc025_5011"
    INDEX 01 01:58:09
  TRACK 64 AUDIO
    TITLE "10:cjc025_5012"
    INDEX 01 01:59:28
  TRACK 65 AUDIO
    TITLE "10:cjc025_5013"
    INDEX 01 02:01:43
  TRACK 66 AUDIO
    TITLE "10:cjc025_5014"
    INDEX 01 02:02:66
  TRACK 67 AUDIO
    TITLE "10:cjc025_5015"
    INDEX 01 02:06:40
  TRACK 68 AUDIO
    TITLE "10:cjc025_5016"
    INDEX 01 02:07:59
  TRACK 69 AUDIO
    TITLE "10:cjc025_5017"
    INDEX 01 02:09:54
  TRACK 70 AUDIO
    TITLE "10:cjc025_5018"
    INDEX 01 02:11:17
  TRACK 71 AUDIO
    TITLE "10:cjc025_5019"
    INDEX 01 02:14:18
  TRACK 72 AUDIO
    TITLE "10:cjc025_5020"
    INDEX 01 02:15:31
  TRACK 73 AUDIO
    TITLE "10:cjc025_5021"
    INDEX 01 02:17:71
  TRACK 74 AUDIO
    TITLE "10:cjc025_5022"
    INDEX 01 02:19:07
  TRACK 75 AUDIO
    TITLE "10:cjc025_5023"
    INDEX 01 02:21:39
  TRACK 76 AUDIO
    TITLE "10:cjc025_5024"
    INDEX 01 02:22:43
  TRACK 77 AUDIO
    TITLE "10:cjc025_5025"
    INDEX 01 02:25:43
  TRACK 78 AUDIO
    TITLE "10:cjc025_5026"
    INDEX 01 02:26:58
  TRACK 79 AUDIO
    TITLE "10:cjc025_5027"
    INDEX 01 02:28:45
  TRACK 80 AUDIO
    TITLE "10:cjc025_5028"
    INDEX 01 02:30:38
  TRACK 81 AUDIO
    TITLE "10:cjc025_5029"
    INDEX 01 02:34:03
  TRACK 82 AUDIO
    TITLE "10:cjc025_5030"
    INDEX 01 02:35:47
  TRACK 83 AUDIO
    TITLE "10:cjc025_5031"
    INDEX 01 02:38:71
  TRACK 84 AUDIO
    TITLE "10:cjc025_5032"
    INDEX 01 02:40:31
  TRACK 85 AUDIO
    TITLE "10:cjc025_5033"
    INDEX 01 02:43:51
  TRACK 86 AUDIO
    TITLE "10:cjc025_5034"
    INDEX 01 02:47:17
  TRACK 87 AUDIO
    TITLE "10:cjc025_5035"
    INDEX 01 02:51:03
  TRACK 88 AUDIO
    TITLE "10:cjc025_5036"
    INDEX 01 02:53:43
  TRACK 89 AUDIO
    TITLE "10:cjc025_5037"
    INDEX 01 02:56:38
  TRACK 90 AUDIO
    TITLE "10:cjc025_5038"
    INDEX 01 02:58:33
  TRACK 91 AUDIO
    TITLE "10:cjc025_5039"
    INDEX 01 03:02:44
  TRACK 92 AUDIO
    TITLE "10:cjc025_5040"
    INDEX 01 03:06:11
  TRACK 93 AUDIO
    TITLE "10:cjc025_5041"
    INDEX 01 03:11:49
  TRACK 94 AUDIO
    TITLE "10:cjc025_5042"
    INDEX 01 03:16:03
  TRACK 95 AUDIO
    TITLE "10:cjc025_5043"
    INDEX 01 03:18:49
  TRACK 96 AUDIO
    TITLE "10:cjc025_5044"
    INDEX 01 03:23:74
  TRACK 97 AUDIO
    TITLE "0:"
    INDEX 01 03:27:09
